<svg version="1.1" viewBox="0.0 0.0 1024.0 1024.0" fill="none" stroke="none" stroke-linecap="square" stroke-miterlimit="10" xmlns:xlink="http://www.w3.org/1999/xlink" xmlns="http://www.w3.org/2000/svg"><clipPath id="p.0"><path d="m0 0l1024.0 0l0 1024.0l-1024.0 0l0 -1024.0z" clip-rule="nonzero"/></clipPath><g clip-path="url(#p.0)"><path fill="#000000" fill-opacity="0.0" d="m0 0l1024.0 0l0 1024.0l-1024.0 0z" fill-rule="evenodd"/><path fill="#ffffff" d="m0 512.0l0 0c0 -282.76978 229.23021 -512.0 512.0 -512.0l0 0c135.79083 0 266.02002 53.942703 362.0387 149.96133c96.018616 96.018616 149.9613 226.24783 149.9613 362.03867l0 0c0 282.76978 -229.23022 512.0 -512.0 512.0l0 0c-282.76978 0 -512.0 -229.23022 -512.0 -512.0z" fill-rule="evenodd"/><path fill="#000000" d="m115.59974 187.70473l367.0315 355.29926l-5.026245 291.61414l-92.17847 1.677185l-65.36221 -45.251953l-177.64828 -56.98163l100.55643 -77.09192l-229.60367 -31.842468l177.64828 -70.39111l-149.15747 -155.86087l184.35172 65.35956z" fill-rule="evenodd"/><path stroke="#000000" stroke-width="1.0" stroke-linejoin="round" stroke-linecap="butt" d="m115.59974 187.70473l367.0315 355.29926l-5.026245 291.61414l-92.17847 1.677185l-65.36221 -45.251953l-177.64828 -56.98163l100.55643 -77.09192l-229.60367 -31.842468l177.64828 -70.39111l-149.15747 -155.86087l184.35172 65.35956z" fill-rule="evenodd"/><path fill="#000000" d="m908.40027 187.70473l-367.0315 355.29926l5.026245 291.61414l92.17847 1.677185l65.36218 -45.251953l177.64832 -56.98163l-100.5564 -77.09192l229.60364 -31.842468l-177.64832 -70.39111l149.15753 -155.86087l-184.35175 65.35956z" fill-rule="evenodd"/><path stroke="#000000" stroke-width="1.0" stroke-linejoin="round" stroke-linecap="butt" d="m908.40027 187.70473l-367.0315 355.29926l5.026245 291.61414l92.17847 1.677185l65.36218 -45.251953l177.64832 -56.98163l-100.5564 -77.09192l229.60364 -31.842468l-177.64832 -70.39111l149.15753 -155.86087l-184.35175 65.35956z" fill-rule="evenodd"/></g></svg>