<svg version="1.1" viewBox="0.0 0.0 2048.0 2048.0" fill="none" stroke="none" stroke-linecap="square" stroke-miterlimit="10" xmlns:xlink="http://www.w3.org/1999/xlink" xmlns="http://www.w3.org/2000/svg"><clipPath id="p.0"><path d="m0 0l2048.0 0l0 2048.0l-2048.0 0l0 -2048.0z" clip-rule="nonzero"/></clipPath><g clip-path="url(#p.0)"><path fill="#000000" fill-opacity="0.0" d="m0 0l2048.0 0l0 2048.0l-2048.0 0z" fill-rule="evenodd"/><path fill="#ffffff" d="m-3.351706 1020.6483l0 0c0 -565.5396 458.46042 -1024.0 1024.0 -1024.0l0 0c271.58167 0 532.04004 107.88541 724.0773 299.92267c192.03735 192.03726 299.92273 452.49564 299.92273 724.0774l0 0c0 565.53955 -458.46045 1024.0 -1024.0 1024.0l0 0c-565.5396 0 -1024.0 -458.46045 -1024.0 -1024.0z" fill-rule="evenodd"/><g filter="url(#shadowFilter-p.1)"><use xlink:href="#p.1" transform="matrix(1.0 0.0 0.0 1.0 18.755776115485528 19.422174803149677)"/></g><defs><filter id="shadowFilter-p.1" filterUnits="userSpaceOnUse"><feGaussianBlur in="SourceAlpha" stdDeviation="5.0" result="blur"/><feComponentTransfer in="blur" color-interpolation-filters="sRGB"><feFuncR type="linear" slope="0" intercept="0.0"/><feFuncG type="linear" slope="0" intercept="0.0"/><feFuncB type="linear" slope="0" intercept="0.0"/><feFuncA type="linear" slope="0.5" intercept="0"/></feComponentTransfer></filter></defs><g id="p.1"><path fill="#000000" d="m1272.4465 358.65094l0 594.3371l59.595337 95.575806l0 -689.9129zm119.190674 0l0 782.27606l59.595337 97.18213l0 -879.4582zm119.190796 0l0 973.4278l59.595337 97.98523l0 -1071.4131zm-1032.9863 258.61694l0 1071.4131l59.595337 0l0 -973.42773l-59.595337 -97.98529zm119.190735 191.95483l0 879.4582l59.595337 0l0 -782.27606l-59.595337 -97.18213zm119.190674 189.54529l0 689.9129l59.595398 0l0 -594.33704l-59.595398 -95.57587zm-357.57214 -640.11707l0 1330.03l59.595367 0l0 -1236.0604l783.01685 1236.0604l68.700195 0l-840.1291 -1330.03zm139.88354 0l842.61224 1330.03l69.527954 0l-842.61224 -1330.03zm140.7113 0l840.9567 1330.03l71.18335 0l-841.7845 -1330.03zm139.88354 0l840.1291 1330.03l70.35559 0l0 -1330.03l-59.595337 0l0 1236.0605l-781.36145 -1236.0605z" fill-rule="evenodd"/><path stroke="#000000" stroke-width="1.0" stroke-linejoin="round" stroke-linecap="butt" d="m1272.4465 358.65094l0 594.3371l59.595337 95.575806l0 -689.9129zm119.190674 0l0 782.27606l59.595337 97.18213l0 -879.4582zm119.190796 0l0 973.4278l59.595337 97.98523l0 -1071.4131zm-1032.9863 258.61694l0 1071.4131l59.595337 0l0 -973.42773l-59.595337 -97.98529zm119.190735 191.95483l0 879.4582l59.595337 0l0 -782.27606l-59.595337 -97.18213zm119.190674 189.54529l0 689.9129l59.595398 0l0 -594.33704l-59.595398 -95.57587zm-357.57214 -640.11707l0 1330.03l59.595367 0l0 -1236.0604l783.01685 1236.0604l68.700195 0l-840.1291 -1330.03zm139.88354 0l842.61224 1330.03l69.527954 0l-842.61224 -1330.03zm140.7113 0l840.9567 1330.03l71.18335 0l-841.7845 -1330.03zm139.88354 0l840.1291 1330.03l70.35559 0l0 -1330.03l-59.595337 0l0 1236.0605l-781.36145 -1236.0605z" fill-rule="evenodd"/></g><path fill="#000000" fill-opacity="0.0" d="m677.0806 372.05725c-63.685913 -23.46283 -329.60236 -196.08311 -382.11548 -140.7769c-52.513107 55.3062 55.863953 393.84515 67.03674 472.6142" fill-rule="evenodd"/><path stroke="#000000" stroke-width="8.0" stroke-linejoin="round" stroke-linecap="butt" d="m649.48114 359.50455l-0.011413574 -0.005706787c-1.6086426 -0.8059387 -3.2554932 -1.6382446 -4.939087 -2.4953918c-13.468689 -6.857544 -29.2854 -15.309174 -46.638367 -24.618408c-34.706055 -18.618439 -75.55719 -40.667297 -116.05917 -60.25464c-81.004 -39.174637 -160.61139 -68.50314 -186.86795 -40.85005c-26.256561 27.653091 -12.290558 126.114365 9.636169 227.50853c10.963348 50.697052 23.9169 102.12732 34.82791 145.80646c5.455475 21.839478 10.40036 41.74121 14.330475 58.644592c0.49127197 2.112976 0.9667053 4.179016 1.425293 6.196167c0.22927856 1.008606 0.4543457 2.0049438 0.67510986 2.9888306l0.3791809 1.7022705" fill-rule="evenodd"/><path fill="#000000" stroke="#000000" stroke-width="8.0" stroke-linecap="butt" d="m673.4395 370.4012c-3.0090332 6.6159363 -10.811584 9.539886 -17.42749 6.5308533c-6.615967 -3.0090332 -9.539917 -10.811615 -6.530884 -17.42752c3.0090332 -6.6159363 10.811584 -9.539917 17.427551 -6.5308533c6.615906 3.0090332 9.539856 10.811584 6.5308228 17.42752z" fill-rule="nonzero"/><path fill="#000000" stroke="#000000" stroke-width="8.0" stroke-linecap="butt" d="m361.24164 699.9674c-7.1355896 1.3814087 -14.039917 -3.2833252 -15.421295 -10.418945c-1.3813477 -7.135559 3.2833557 -14.039917 10.418945 -15.421265c7.1355896 -1.3814087 14.0399475 3.2833252 15.421326 10.418945c1.3813477 7.135559 -3.2833862 14.039917 -10.418976 15.421265z" fill-rule="nonzero"/><path fill="#000000" fill-opacity="0.0" d="m355.29956 717.3018c-33.51883 60.892822 -185.4707 192.17633 -201.11287 365.357c-15.642166 173.18066 29.049438 572.05334 107.25984 673.72705c78.21042 101.673584 301.66888 -53.070923 362.00262 -63.68506" fill-rule="evenodd"/><path stroke="#000000" stroke-width="8.0" stroke-linejoin="round" stroke-linecap="butt" d="m338.37253 742.4569l-0.6965637 0.923645c-7.3933105 9.755676 -16.139618 20.555481 -25.741364 32.343933c-19.203491 23.576782 -41.828674 51.10785 -63.895233 82.14789c-44.13307 62.08008 -86.031586 138.19604 -93.85266 224.78644c-15.642181 173.18066 29.049408 572.05334 107.25983 673.72705c39.105225 50.836914 114.52243 37.569214 187.70505 10.265381c36.59134 -13.651855 72.62399 -30.812622 103.27969 -45.223877c15.327881 -7.2056885 29.311462 -13.723999 41.34851 -18.77246l0.9022217 -0.37524414" fill-rule="evenodd"/><path fill="#000000" stroke="#000000" stroke-width="8.0" stroke-linecap="butt" d="m353.06644 720.6204c6.0299683 4.057617 7.6289062 12.2352295 3.571289 18.265198c-4.057617 6.0299683 -12.235199 7.6289062 -18.265198 3.571289c-6.0299683 -4.057556 -7.6288757 -12.235168 -3.571289 -18.265137c4.057617 -6.0300293 12.235199 -7.6289062 18.265198 -3.57135z" fill-rule="nonzero"/><path fill="#000000" stroke="#000000" stroke-width="8.0" stroke-linecap="butt" d="m619.654 1693.9645c2.2962036 6.895874 -1.4325562 14.347412 -8.32843 16.643555c-6.895813 2.2961426 -14.347351 -1.4326172 -16.643555 -8.328369c-2.2961426 -6.895874 1.4326172 -14.347412 8.32843 -16.643555c6.895813 -2.2962646 14.347412 1.4324951 16.643555 8.328369z" fill-rule="nonzero"/><path fill="#000000" fill-opacity="0.0" d="m626.80316 1696.0532c60.33374 21.228882 301.11023 184.35486 362.00262 127.3728c60.892334 -56.982178 37.429077 -416.75208 3.3516846 -469.26514c-34.077393 -52.513184 -173.18024 128.48865 -207.81628 154.1864" fill-rule="evenodd"/><path stroke="#000000" stroke-width="8.0" stroke-linejoin="round" stroke-linecap="butt" d="m654.4252 1708.5563l0.44317627 0.22363281c0.76312256 0.3869629 1.534668 0.77978516 2.3144531 1.1785889c12.476807 6.3807373 27.069275 14.271851 43.07361 22.965698c32.008667 17.38794 69.664856 37.98816 107.33856 56.14441c75.34735 36.312256 150.76459 62.84839 181.21082 34.35742c60.892334 -56.982178 37.429077 -416.75195 3.3516846 -469.26514c-17.038696 -26.256592 -60.33374 5.8654785 -103.69867 47.764038c-21.682373 20.949219 -43.382263 44.34265 -61.826355 64.10474c-4.611023 4.940674 -9.018494 9.654175 -13.171387 14.0460205c-2.076477 2.1958008 -4.0892334 4.311157 -6.0319824 6.3341064l-1.0609131 1.1020508" fill-rule="evenodd"/><path fill="#000000" stroke="#000000" stroke-width="8.0" stroke-linecap="butt" d="m630.4472 1697.7028c2.9971313 -6.621338 10.794434 -9.559326 17.415771 -6.562134c6.621338 2.9970703 9.559326 10.794434 6.562195 17.41565c-2.9971313 6.621338 -10.794434 9.559448 -17.415771 6.562256c-6.621277 -2.9970703 -9.559326 -10.794434 -6.562195 -17.415771z" fill-rule="nonzero"/><path fill="#000000" stroke="#000000" stroke-width="8.0" stroke-linecap="butt" d="m787.24713 1505.5985c-4.994507 -5.2801514 -4.7629395 -13.609375 0.5172119 -18.603882c5.2801514 -4.994385 13.609375 -4.7629395 18.60382 0.5172119c4.994507 5.2801514 4.7630005 13.609375 -0.5171509 18.603882c-5.2801514 4.994507 -13.609375 4.7629395 -18.603882 -0.5172119z" fill-rule="nonzero"/><path fill="#000000" fill-opacity="0.0" d="m780.9895 1515.0499c70.94794 70.948364 322.33813 396.0818 425.68762 425.6902c103.34961 29.60852 162.00793 -206.69946 194.40955 -248.0393" fill-rule="evenodd"/><path stroke="#000000" stroke-width="8.0" stroke-linejoin="round" stroke-linecap="butt" d="m801.74316 1537.1539l1.3269653 1.4700928c0.7776489 0.8638916 1.5645752 1.7403564 2.3605347 2.6292725c3.1842651 3.55542 6.5145264 7.308838 9.981018 11.243408c13.865723 15.738159 29.90924 34.37439 47.489136 54.83496c35.15973 40.92102 76.4646 89.13928 118.78192 136.0658c84.634766 93.85303 173.3197 182.53857 224.99438 197.34265c51.674805 14.804199 92.17676 -36.870728 123.8103 -97.41394c15.81665 -30.271729 29.41626 -62.760498 41.086792 -90.26526c2.9176025 -6.8762207 5.7145996 -13.440796 8.395752 -19.58142c1.3404541 -3.0703125 2.6518555 -6.034668 3.9350586 -8.878906c0.6413574 -1.4221191 1.2758789 -2.814209 1.9031982 -4.1745605l0.56396484 -1.2150879" fill-rule="evenodd"/><path fill="#000000" stroke="#000000" stroke-width="8.0" stroke-linecap="butt" d="m783.7275 1517.966c5.298584 -4.9748535 13.626892 -4.7124023 18.601807 0.58618164c4.9749146 5.298584 4.7124634 13.626831 -0.5861206 18.601807c-5.298584 4.9748535 -13.626953 4.7124023 -18.601807 -0.58618164c-4.9749146 -5.298584 -4.7125244 -13.626831 0.5861206 -18.601807z" fill-rule="nonzero"/><path fill="#000000" stroke="#000000" stroke-width="8.0" stroke-linecap="butt" d="m1399.1454 1696.1981c6.3548584 3.5272217 8.646973 11.538208 5.119751 17.893066c-3.5272217 6.3547363 -11.538208 8.646973 -17.892944 5.119751c-6.3548584 -3.5272217 -8.646973 -11.538208 -5.119751 -17.893066c3.5272217 -6.3547363 11.538208 -8.646973 17.892944 -5.119751z" fill-rule="nonzero"/><path fill="#000000" fill-opacity="0.0" d="m1411.1417 1696.0525c71.50696 20.669678 353.62463 207.81543 429.042 124.01843c75.41736 -83.79712 49.159668 -461.4414 23.461914 -626.80054c-25.697632 -165.35913 -148.04016 -304.46198 -177.64832 -365.35437" fill-rule="evenodd"/><path stroke="#000000" stroke-width="8.0" stroke-linejoin="round" stroke-linecap="butt" d="m1439.3401 1707.1951l2.2773438 1.0419922c1.7591553 0.81018066 3.5585938 1.6494141 5.3967285 2.5158691c14.704956 6.9317627 31.88562 15.6102295 50.726807 25.181396c37.682617 19.142334 82.007935 41.854736 126.455444 61.30237c88.89502 38.895508 178.27869 64.73279 215.9873 22.834229c75.41736 -83.79712 49.159668 -461.4414 23.461914 -626.80054c-12.848755 -82.67969 -49.858887 -158.79517 -87.35779 -221.85223c-18.749268 -31.528564 -37.62097 -59.792603 -53.65576 -83.98016c-8.017456 -12.093811 -15.325439 -23.16858 -21.554688 -33.12268l-0.043823242 -0.0703125" fill-rule="evenodd"/><path fill="#000000" stroke="#000000" stroke-width="8.0" stroke-linecap="butt" d="m1414.8618 1697.5225c2.6710205 -6.7593994 10.315918 -10.073853 17.07544 -7.402832c6.7593994 2.6710205 10.073853 10.315918 7.402832 17.07544c-2.6710205 6.7593994 -10.315918 10.073853 -17.07544 7.402832c-6.7593994 -2.6710205 -10.073853 -10.315918 -7.402832 -17.07544z" fill-rule="nonzero"/><path fill="#000000" stroke="#000000" stroke-width="8.0" stroke-linecap="butt" d="m1687.9811 831.38947c6.3112793 -3.60437 14.349609 -1.4099121 17.95398 4.9014893c3.60437 6.3113403 1.4099121 14.34967 -4.9014893 17.95398c-6.3112793 3.60437 -14.349609 1.4099121 -17.95398 -4.901428c-3.60437 -6.3113403 -1.4099121 -14.34967 4.9014893 -17.95404z" fill-rule="nonzero"/><path fill="#000000" fill-opacity="0.0" d="m1699.4042 844.6742c44.133057 -50.836792 267.59106 -194.409 264.79797 -305.021c-2.7930908 -110.61197 -90.499146 -327.92517 -281.55652 -358.65088c-191.05725 -30.725723 -720.6561 145.24715 -864.78735 174.29659" fill-rule="evenodd"/><path stroke="#000000" stroke-width="8.0" stroke-linejoin="round" stroke-linecap="butt" d="m1721.1938 823.5907l0.46118164 -0.40716553c0.6296387 -0.5534668 1.2672119 -1.1116943 1.9127197 -1.6746216c10.328369 -9.00708 22.666626 -19.217651 36.222656 -30.38623c27.111694 -22.337097 59.094116 -48.506226 89.609985 -76.543274c61.031982 -56.074158 116.198364 -119.62018 114.80176 -174.92621c-2.793213 -110.61197 -90.49927 -327.92517 -281.55652 -358.65088c-95.528564 -15.362869 -275.6925 20.948929 -449.99097 64.732605c-87.14905 21.891861 -172.83179 45.651657 -245.73547 65.754105c-36.451782 10.0512085 -69.7088 19.18811 -98.356995 26.71997c-14.324097 3.7659302 -27.496033 7.130615 -39.338867 10.007721l-1.7837524 0.43014526" fill-rule="evenodd"/><path fill="#000000" stroke="#000000" stroke-width="8.0" stroke-linecap="butt" d="m1702.2788 841.89276c-5.053955 -5.2232666 -4.916748 -13.554565 0.30651855 -18.60852c5.2232666 -5.054016 13.554565 -4.916748 18.60852 0.30645752c5.053955 5.2232666 4.916748 13.554565 -0.30651855 18.60852c-5.2232666 5.053955 -13.554565 4.916748 -18.60852 -0.30645752z" fill-rule="nonzero"/><path fill="#000000" stroke="#000000" stroke-width="8.0" stroke-linecap="butt" d="m821.7608 354.4213c-1.5945435 -7.090973 2.861145 -14.132019 9.952148 -15.726593c7.0910034 -1.594574 14.132019 2.8611755 15.726624 9.952148c1.5945435 7.0910034 -2.861145 14.132019 -9.952148 15.726593c-7.0910034 1.594574 -14.132019 -2.861145 -15.726624 -9.952148z" fill-rule="nonzero"/><path fill="#000000" fill-opacity="0.0" d="m817.8583 355.29922c46.926514 -39.664062 162.5669 -237.98425 281.55908 -237.98425c118.992065 0 360.328 198.32019 432.39368 237.98425" fill-rule="evenodd"/><path stroke="#000000" stroke-width="8.0" stroke-linejoin="round" stroke-linecap="butt" d="m838.80817 333.3811l1.2304688 -1.4449463c0.5001831 -0.5899048 1.0040283 -1.186615 1.5114746 -1.7899475c1.0150146 -1.206665 2.0445557 -2.4398193 3.0883179 -3.6980896c2.0877075 -2.5165405 4.232483 -5.1335144 6.432373 -7.840088c4.3997803 -5.4131165 9.02002 -11.18457 13.84491 -17.227112c19.299622 -24.170288 41.872498 -52.678818 66.69745 -79.947845c49.649963 -54.538055 108.308105 -104.11811 167.8042 -104.11811c59.49597 0 149.578 49.580055 233.79431 104.11811c42.108032 27.269028 82.74963 55.777557 117.36841 79.947845c17.309326 12.085114 33.113037 23.085693 46.84131 32.304474c1.7160645 1.1523743 3.3996582 2.276886 5.0496826 3.3721924c0.8251953 0.54763794 1.6418457 1.0880127 2.449829 1.6208801l1.0804443 0.70980835" fill-rule="evenodd"/><path fill="#000000" stroke="#000000" stroke-width="8.0" stroke-linecap="butt" d="m820.62213 352.40765c-5.2540894 -5.021942 -5.4421997 -13.352295 -0.4202881 -18.606323c5.0219727 -5.2540283 13.352295 -5.4421997 18.606323 -0.42025757c5.2540283 5.021942 5.4421997 13.352295 0.42022705 18.606323c-5.0219116 5.2540283 -13.352234 5.442169 -18.606262 0.42025757z" fill-rule="nonzero"/><path fill="#000000" stroke="#000000" stroke-width="8.0" stroke-linecap="butt" d="m1528.406 353.20013c-3.8139648 6.18692 -11.921387 8.110504 -18.108276 4.2964478c-6.1868896 -3.8140259 -8.110474 -11.921417 -4.296509 -18.108337c3.814087 -6.1868896 11.921509 -8.110474 18.108398 -4.2964478c6.1868896 3.8140564 8.110474 11.921448 4.2963867 18.108337z" fill-rule="nonzero"/><path fill="#000000" fill-opacity="0.0" d="m1531.811 355.29883c-70.38977 -22.346008 -324.0166 -155.30489 -422.33862 -134.07611c-98.32196 21.22879 -139.66095 217.87402 -167.59314 261.44882" fill-rule="evenodd"/><path stroke="#000000" stroke-width="8.0" stroke-linejoin="round" stroke-linecap="butt" d="m1503.4113 344.6802l-0.8300781 -0.33691406c-1.6628418 -0.6777344 -3.3613281 -1.3753967 -5.0943604 -2.0920105c-13.863647 -5.7326965 -29.9292 -12.676575 -47.5354 -20.314362c-35.21228 -15.275604 -76.58728 -33.327026 -118.83508 -50.016693c-84.49573 -33.37938 -172.48291 -61.311905 -221.64392 -50.697495c-49.16089 10.61438 -84.07617 65.08287 -110.19275 122.34465c-13.058228 28.63086 -23.91681 57.960052 -33.25659 82.85495c-2.3349 6.223755 -4.575012 12.170319 -6.730774 17.759552c-1.0778198 2.7946167 -2.1345825 5.4999084 -3.1716309 8.105835c-0.25927734 0.65148926 -0.517334 1.2967529 -0.7741089 1.935669l-0.43347168 1.0725708" fill-rule="evenodd"/><path fill="#000000" stroke="#000000" stroke-width="8.0" stroke-linecap="butt" d="m1528.0643 353.89798c-2.5454102 6.8077393 -10.127686 10.263062 -16.935425 7.7176514c-6.8077393 -2.5454102 -10.263062 -10.127655 -7.7176514 -16.935425c2.5454102 -6.80777 10.127686 -10.263092 16.935425 -7.717682c6.8077393 2.5454407 10.263062 10.127686 7.7176514 16.935455z" fill-rule="nonzero"/><path fill="#000000" stroke="#000000" stroke-width="8.0" stroke-linecap="butt" d="m943.59875 479.06c-6.562256 -3.1243591 -9.349182 -10.976929 -6.2248535 -17.539154c3.1243896 -6.562256 10.976929 -9.349243 17.539185 -6.224884c6.562256 3.1243591 9.349182 10.976929 6.2248535 17.539185c-3.1243896 6.562256 -10.976929 9.349213 -17.539185 6.2248535z" fill-rule="nonzero"/><path fill="#000000" fill-opacity="0.0" d="m945.23096 486.02356c-36.87091 -58.657898 -122.90375 -330.71872 -221.22571 -351.9475c-98.32196 -21.22879 -307.25504 187.14568 -368.70602 224.57481" fill-rule="evenodd"/><path stroke="#000000" stroke-width="8.0" stroke-linejoin="round" stroke-linecap="butt" d="m931.1549 459.169l-0.852478 -1.8121643c-0.3741455 -0.79922485 -0.7509155 -1.6081543 -1.1304932 -2.4265137c-6.073181 -13.094421 -12.842468 -28.616486 -20.2359 -45.659576c-14.786865 -34.08615 -32.07013 -74.25635 -51.273804 -113.25687c-38.407288 -78.00102 -84.49603 -151.32343 -133.65698 -161.93782c-49.16101 -10.6143875 -125.97473 36.172012 -198.17963 90.290665c-36.102448 27.059341 -71.052704 55.95175 -100.81799 80.41861c-14.882629 12.233429 -28.469086 23.360504 -40.255157 32.598877c-1.4732666 1.1547852 -2.918396 2.2800598 -4.3344116 3.3743286l-0.41220093 0.31723022" fill-rule="evenodd"/><path fill="#000000" stroke="#000000" stroke-width="8.0" stroke-linecap="butt" d="m943.37396 482.48077c-6.437378 3.374176 -14.391174 0.8909912 -17.76538 -5.5463867c-3.3742065 -6.4373474 -0.8909912 -14.391205 5.5463867 -17.76538c6.437378 -3.374176 14.391174 -0.8909912 17.76538 5.546356c3.3742065 6.437378 0.8909912 14.391205 -5.5463867 17.765411z" fill-rule="nonzero"/><path fill="#000000" stroke="#000000" stroke-width="8.0" stroke-linecap="butt" d="m358.55865 356.33228c-4.2129517 -5.9224854 -2.827118 -14.1388855 3.0953674 -18.351837c5.9224854 -4.212982 14.1388855 -2.827118 18.351837 3.095337c4.2129517 5.9224854 2.827118 14.1388855 -3.0953674 18.351837c-5.922455 4.212982 -14.138855 2.827118 -18.351837 -3.095337z" fill-rule="nonzero"/><path fill="#000000" fill-opacity="0.0" d="m355.30026 358.6509c-26.814972 49.16098 -161.4484 149.15881 -160.88977 294.9659c0.558609 145.80707 136.86789 483.23047 164.24146 579.8766" fill-rule="evenodd"/><path stroke="#000000" stroke-width="8.0" stroke-linejoin="round" stroke-linecap="butt" d="m337.5628 383.24127l-0.53570557 0.64556885c-0.41775513 0.50112915 -0.83984375 1.005249 -1.2662048 1.5125122c-1.7054749 2.0288696 -3.479187 4.1066895 -5.31369 6.2331543c-3.6689453 4.2530212 -7.5811157 8.700897 -11.6770935 13.342468c-16.384003 18.566315 -35.709656 40.231354 -54.17984 64.916595c-36.940384 49.370453 -70.459076 110.821686 -70.17978 183.72525c0.27931213 72.9035 34.496277 193.71118 72.065094 308.37366c18.784454 57.3313 38.40683 113.12622 55.043945 160.62878c8.318573 23.751343 15.890839 45.429443 22.238861 64.18994c1.5870056 4.6901855 3.0975037 9.197876 4.5240173 13.510132c0.35662842 1.078125 0.7080078 2.143921 1.0540466 3.1973877l0.33303833 1.0178223" fill-rule="evenodd"/><path fill="#000000" stroke="#000000" stroke-width="8.0" stroke-linecap="butt" d="m352.9602 361.89502c5.8945923 4.251892 7.226288 12.477234 2.9744263 18.371826c-4.2518616 5.894623 -12.477234 7.2263184 -18.371826 2.9744263c-5.8945923 -4.2518616 -7.226288 -12.477203 -2.9744263 -18.371826c4.251892 -5.8945923 12.477234 -7.226288 18.371826 -2.9744263z" fill-rule="nonzero"/><path fill="#000000" stroke="#000000" stroke-width="8.0" stroke-linecap="butt" d="m357.46692 1229.673c-6.941803 2.1531982 -14.314728 -1.7286377 -16.467926 -8.670532c-2.1531982 -6.9417725 1.7286987 -14.314697 8.670502 -16.467896c6.941803 -2.1531982 14.314758 1.7287598 16.467957 8.670532c2.1531982 6.9417725 -1.7287292 14.314697 -8.670532 16.467896z" fill-rule="nonzero"/><path fill="#000000" fill-opacity="0.0" d="m358.6509 1233.4934c-16.200775 45.808838 -97.20471 175.41382 -97.20471 274.85303c0 99.43921 54.74759 291.6151 97.20471 321.78223c42.457153 30.166992 131.28174 -117.316284 157.53806 -140.77954" fill-rule="evenodd"/><path stroke="#000000" stroke-width="8.0" stroke-linejoin="round" stroke-linecap="butt" d="m346.56512 1261.3005l-1.2704773 2.6607666c-0.533905 1.1131592 -1.0774841 2.2420654 -1.630249 3.3863525c-2.2109985 4.576538 -4.568329 9.396973 -7.036438 14.433472c-9.872345 20.146118 -21.516663 43.74878 -32.654694 69.027466c-22.276093 50.55725 -42.52707 107.81836 -42.52707 157.53784c0 99.43921 54.74759 291.615 97.20471 321.78223c21.228607 15.083618 54.04901 -14.245483 84.84433 -50.278442c15.397675 -18.016357 30.289032 -37.708862 42.972046 -54.363525c3.1707458 -4.1636963 6.203491 -8.137451 9.071594 -11.847778l0.95809937 -1.2348633" fill-rule="evenodd"/><path fill="#000000" stroke="#000000" stroke-width="8.0" stroke-linecap="butt" d="m357.0565 1237.1619c6.6657104 2.8972168 9.720734 10.649414 6.823639 17.315063c-2.8971252 6.6656494 -10.649292 9.720703 -17.315002 6.8236084c-6.6657104 -2.8970947 -9.720734 -10.649292 -6.823639 -17.314941c2.8971252 -6.6657715 10.649292 -9.720825 17.315002 -6.8237305z" fill-rule="nonzero"/><path fill="#000000" stroke="#000000" stroke-width="8.0" stroke-linecap="butt" d="m513.59106 1692.3906c5.5265503 4.720459 6.1800537 13.027222 1.4596558 18.55371c-4.7204285 5.5264893 -13.027222 6.1800537 -18.553741 1.4595947c-5.52652 -4.720337 -6.180023 -13.027222 -1.4596252 -18.55371c4.7204285 -5.5264893 13.027191 -6.1800537 18.55371 -1.4595947z" fill-rule="nonzero"/><path fill="#000000" fill-opacity="0.0" d="m516.18896 1689.3491c82.67981 42.45703 353.62378 254.7428 496.07874 254.7428c142.45496 0 298.87573 -212.28577 358.65088 -254.7428" fill-rule="evenodd"/><path stroke="#000000" stroke-width="8.0" stroke-linejoin="round" stroke-linecap="butt" d="m542.48846 1704.4369l1.6572266 1.0163574c3.5998535 2.216919 7.354553 4.564575 11.254456 7.031616c15.599548 9.868042 33.522095 21.64331 53.148926 34.579468c39.253723 25.872192 85.32471 56.388306 133.26361 85.577515c95.87775 58.378662 199.22748 111.45007 270.45502 111.45007c71.22754 0 145.94641 -53.07141 210.33044 -111.45007c32.192017 -29.189209 61.80017 -59.705322 87.09631 -85.577515c12.648193 -12.936157 24.21814 -24.711426 34.494263 -34.579468c0.6422119 -0.6166992 1.279419 -1.2259521 1.911499 -1.8277588l1.737793 -1.6462402" fill-rule="evenodd"/><path fill="#000000" stroke="#000000" stroke-width="8.0" stroke-linecap="butt" d="m519.65857 1691.3396c3.6166992 -6.3043213 11.659302 -8.483032 17.963562 -4.866333c6.3043213 3.6166992 8.483032 11.659302 4.866333 17.963501c-3.6166992 6.3043213 -11.659302 8.483032 -17.963562 4.866333c-6.3043213 -3.6166992 -8.483032 -11.659302 -4.866333 -17.963501z" fill-rule="nonzero"/><path fill="#000000" stroke="#000000" stroke-width="8.0" stroke-linecap="butt" d="m1367.8737 1691.943c4.713257 5.532715 4.048828 13.838623 -1.4838867 18.551758c-5.532715 4.713257 -13.838623 4.048828 -18.551758 -1.4838867c-4.713135 -5.532715 -4.048828 -13.838623 1.4838867 -18.551758c5.532715 -4.713135 13.838623 -4.048828 18.551758 1.4838867z" fill-rule="nonzero"/><path fill="#000000" fill-opacity="0.0" d="m1370.9186 1689.3491c34.07788 30.166626 126.81506 189.93823 204.46729 181.0c77.65222 -8.9383545 241.89368 -123.45935 261.44617 -234.63c19.55249 -111.17053 -120.109375 -360.328 -144.13123 -432.39368" fill-rule="evenodd"/><path stroke="#000000" stroke-width="8.0" stroke-linejoin="round" stroke-linecap="butt" d="m1391.0492 1712.022l1.0532227 1.322998c0.40100098 0.50512695 0.8050537 1.0152588 1.2116699 1.5301514c0.81359863 1.0297852 1.6383057 2.0786133 2.473999 3.1455078c3.3426514 4.267578 6.8603516 8.822876 10.5354 13.593262c14.699463 19.080933 31.913086 41.60132 50.488403 62.899536c37.150513 42.596436 79.7478 80.30481 118.573975 75.83569c77.65222 -8.9383545 241.89368 -123.45935 261.44617 -234.63c9.776245 -55.585205 -20.251099 -145.66724 -55.72522 -230.8612c-17.73706 -42.596924 -36.835815 -83.9718 -53.00183 -119.20154c-8.082886 -17.61499 -15.432617 -33.693604 -21.512085 -47.620483c-0.76000977 -1.7408447 -1.5002441 -3.44812 -2.2193604 -5.1204834l-0.5864258 -1.3695068" fill-rule="evenodd"/><path fill="#000000" stroke="#000000" stroke-width="8.0" stroke-linecap="butt" d="m1373.5743 1692.3402c5.4350586 -4.8255615 13.752808 -4.331421 18.57837 1.1035156c4.8255615 5.4349365 4.331421 13.752808 -1.1035156 18.57837c-5.4349365 4.8254395 -13.752808 4.331421 -18.578247 -1.1035156c-4.8255615 -5.4350586 -4.331543 -13.752808 1.1033936 -18.57837z" fill-rule="nonzero"/><path fill="#000000" stroke="#000000" stroke-width="8.0" stroke-linecap="butt" d="m1694.1633 1207.0485c6.7647705 -2.6574707 14.403076 0.67211914 17.060669 7.4368896c2.6574707 6.7647705 -0.67211914 14.403076 -7.4368896 17.060547c-6.7647705 2.6575928 -14.403076 -0.6719971 -17.060669 -7.4367676c-2.6574707 -6.7648926 0.67211914 -14.403076 7.4368896 -17.060669z" fill-rule="nonzero"/><path fill="#000000" fill-opacity="0.0" d="m1692.7008 1203.3254c24.02185 30.725708 141.89673 130.1654 144.13123 184.35437c2.234497 54.188965 -108.93701 117.316284 -130.72437 140.77954" fill-rule="evenodd"/><path stroke="#000000" stroke-width="8.0" stroke-linejoin="round" stroke-linecap="butt" d="m1713.2592 1225.6112l1.4714355 1.4934082c3.2408447 3.2803955 6.694824 6.7457275 10.310791 10.368286c14.463745 14.48999 31.52002 31.493896 47.895264 49.230957c32.750854 35.474243 62.7782 73.88147 63.895386 100.97595c1.1170654 27.094482 -26.117188 56.423584 -56.354004 81.911865c-15.118408 12.744263 -30.98767 24.528198 -44.438965 34.59253c-1.6813965 1.2580566 -3.3249512 2.48938 -4.9246826 3.6921387l-1.6534424 1.2459717" fill-rule="evenodd"/><path fill="#000000" stroke="#000000" stroke-width="8.0" stroke-linecap="butt" d="m1695.413 1206.2655c5.342163 -4.9281006 13.667847 -4.592407 18.595947 0.74975586c4.9281006 5.342163 4.592407 13.667847 -0.74975586 18.595947c-5.342163 4.9281006 -13.667847 4.592407 -18.595947 -0.74975586c-4.9281006 -5.342163 -4.592407 -13.667847 0.74975586 -18.595947z" fill-rule="nonzero"/><path fill="#000000" stroke="#000000" stroke-width="8.0" stroke-linecap="butt" d="m1709.1885 1525.9082c-4.635254 -5.5980225 -3.8547363 -13.893799 1.7432861 -18.529175c5.5981445 -4.635254 13.893921 -3.8548584 18.529297 1.7432861c4.635254 5.5980225 3.8547363 13.893921 -1.7432861 18.529175c-5.5981445 4.635376 -13.893921 3.8548584 -18.529297 -1.7432861z" fill-rule="nonzero"/><path fill="#000000" fill-opacity="0.0" d="m1699.4042 1528.4594c37.429565 -103.90857 224.5774 -462.5608 224.5774 -623.4515c0 -160.89062 -187.14783 -284.91034 -224.5774 -341.8924" fill-rule="evenodd"/><path stroke="#000000" stroke-width="8.0" stroke-linejoin="round" stroke-linecap="butt" d="m1710.5125 1500.2476l0.24511719 -0.5905762c0.91833496 -2.2022705 1.8665771 -4.45813 2.84375 -6.765869c1.9544678 -4.6157227 4.02417 -9.438477 6.1990967 -14.454712c8.699463 -20.065674 19.080322 -43.227783 30.484741 -68.60254c22.808472 -50.749756 49.71106 -110.350464 75.44385 -171.73193c51.4657 -122.76306 98.25256 -252.64868 98.25256 -333.09406c0 -80.44537 -46.786865 -151.67291 -98.25256 -209.91193c-25.732788 -29.119507 -52.635376 -54.991882 -75.44385 -77.14569c-11.404419 -11.076965 -21.785278 -21.224243 -30.484741 -30.383057l-1.0471191 -1.1083984" fill-rule="evenodd"/><path fill="#000000" stroke="#000000" stroke-width="8.0" stroke-linecap="butt" d="m1700.8696 1524.7374c-6.7626953 -2.6627197 -10.086304 -10.303711 -7.423584 -17.066406c2.6628418 -6.7626953 10.303711 -10.086304 17.066406 -7.423584c6.7626953 2.6628418 10.086426 10.303711 7.423584 17.066406c-2.6627197 6.7626953 -10.303589 10.086426 -17.066406 7.423584z" fill-rule="nonzero"/><path fill="#000000" stroke="#000000" stroke-width="8.0" stroke-linecap="butt" d="m1701.9569 566.19507c5.595581 -4.6381836 13.891846 -3.8620605 18.53003 1.7336426c4.6383057 5.595703 3.8620605 13.891907 -1.7336426 18.530151c-5.595581 4.6381836 -13.891846 3.8620605 -18.53003 -1.7336426c-4.6383057 -5.595703 -3.8620605 -13.891907 1.7336426 -18.530151z" fill-rule="nonzero"/><path fill="#000000" fill-opacity="0.0" d="m1699.4042 563.1154c17.317993 -68.15488 293.28967 -373.17584 103.9082 -408.92914c-189.38147 -35.75328 -1033.4974 162.00787 -1240.1969 194.40945" fill-rule="evenodd"/><path stroke="#000000" stroke-width="8.0" stroke-linejoin="round" stroke-linecap="butt" d="m1711.9479 535.5118l0.7180176 -1.2716675c0.24926758 -0.4393921 0.50146484 -0.8815918 0.7562256 -1.3265991c1.0192871 -1.7799072 2.0825195 -3.604126 3.1866455 -5.470703c8.833618 -14.932922 20.294556 -32.578278 32.968872 -51.9476c25.34851 -38.738647 55.550537 -84.37308 79.29297 -128.99496c47.484863 -89.243774 69.132324 -174.43733 -25.558228 -192.31396c-94.690674 -17.876633 -353.06506 22.62532 -613.60425 71.64664c-130.26953 24.510666 -261.08026 51.151184 -372.2423 73.68912c-55.581055 11.268951 -106.24988 21.512299 -149.48291 29.950928c-21.616455 4.2192993 -41.373962 7.9874573 -58.95703 11.207031c-4.395752 0.8049011 -8.655579 1.575531 -12.774658 2.3103333c-1.0297852 0.1836853 -2.0507202 0.36514282 -3.0628052 0.54434204l-0.17315674 0.030548096" fill-rule="evenodd"/><path fill="#000000" stroke="#000000" stroke-width="8.0" stroke-linecap="butt" d="m1701.0591 559.47375c-6.6169434 -3.006836 -9.543457 -10.808472 -6.536621 -17.425354c3.006836 -6.6169434 10.808472 -9.543457 17.425415 -6.536621c6.6168213 3.006897 9.543457 10.808472 6.536499 17.425415c-3.006836 6.6168823 -10.808472 9.543457 -17.425293 6.53656z" fill-rule="nonzero"/><path fill="#000000" stroke="#000000" stroke-width="8.0" stroke-linecap="butt" d="m567.06006 347.93207c-1.2058716 -7.167328 3.626831 -13.95517 10.794189 -15.161041c7.1672974 -1.2058716 13.955139 3.6268616 15.161011 10.794189c1.2058716 7.167328 -3.626831 13.95517 -10.794189 15.161041c-7.1673584 1.2058716 -13.955139 -3.6268616 -15.161011 -10.794189z" fill-rule="nonzero"/><path fill="#000000" fill-opacity="0.0" d="m563.1155 355.29993c99.9978 -11.172791 514.51355 -124.57744 599.98694 -67.03677c85.47327 57.54071 -72.62256 343.56735 -87.147095 412.28085" fill-rule="evenodd"/><path stroke="#000000" stroke-width="8.0" stroke-linejoin="round" stroke-linecap="butt" d="m593.0917 350.74692l2.364441 -0.41912842c1.1664429 -0.20883179 2.3486938 -0.4223938 3.5464478 -0.64068604c4.7910156 -0.8731384 9.830322 -1.8211365 15.098206 -2.8355713c21.071411 -4.05777 45.800293 -9.179382 72.929565 -14.831299c54.258545 -11.303772 118.118835 -24.728638 181.52527 -36.006256c126.812805 -22.555145 251.81 -36.52115 294.5468 -7.750824c42.736694 28.770355 24.580933 114.6622 -6.074341 201.95062c-15.327759 43.644257 -33.780273 87.6376 -49.308716 125.01456c-7.764282 18.688416 -14.797485 35.72278 -20.343506 50.2323c-0.6932373 1.8136597 -1.3632812 3.5879517 -2.008545 5.321045l-0.31066895 0.8405762" fill-rule="evenodd"/><path fill="#000000" stroke="#000000" stroke-width="8.0" stroke-linecap="butt" d="m567.0701 354.69925c-1.0914307 -7.1856384 3.848938 -13.895538 11.034607 -14.986938c7.185669 -1.0914001 13.895569 3.8489685 14.986938 11.034607c1.0914307 7.185669 -3.848938 13.895538 -11.034607 14.986938c-7.185669 1.0914001 -13.895508 -3.848938 -14.986938 -11.034607z" fill-rule="nonzero"/><path fill="#000000" stroke="#000000" stroke-width="8.0" stroke-linecap="butt" d="m1077.1561 696.7285c-6.9329834 -2.1817017 -10.784546 -9.570496 -8.602905 -16.503418c2.1816406 -6.9328613 9.570435 -10.784546 16.503418 -8.602844c6.9328613 2.1817017 10.784546 9.570496 8.602783 16.503418c-2.1816406 6.9328613 -9.570435 10.784485 -16.503296 8.602844z" fill-rule="nonzero"/><path fill="#000000" fill-opacity="0.0" d="m1075.9553 700.544c31.84253 -20.669739 207.25598 -102.23096 191.05518 -124.01837c-16.200806 -21.787415 -240.21655 -5.588379 -288.25983 -6.7060547" fill-rule="evenodd"/><path stroke="#000000" stroke-width="8.0" stroke-linejoin="round" stroke-linecap="butt" d="m1102.3667 685.65295l1.0292969 -0.5505371c1.1140137 -0.59436035 2.2489014 -1.1984863 3.4035645 -1.8118896c4.6185303 -2.4538574 9.552612 -5.05719 14.719971 -7.7805786c20.6698 -10.893494 45.075317 -23.707275 67.979614 -36.55603c45.808594 -25.697449 85.611694 -51.534607 77.51135 -62.428284c-8.100342 -10.893677 -68.15454 -12.2908325 -132.18896 -11.104187c-32.017212 0.59332275 -65.02954 1.8325806 -93.04016 2.8536377c-7.0028076 0.25524902 -13.692871 0.4968872 -19.976562 0.71136475c-3.1419067 0.10723877 -6.182251 0.20770264 -9.109253 0.29968262l-3.6278076 0.11077881" fill-rule="evenodd"/><path fill="#000000" stroke="#000000" stroke-width="8.0" stroke-linecap="butt" d="m1079.4397 698.57947c-3.56958 -6.3311157 -1.3308105 -14.357239 5.000244 -17.926758c6.3311768 -3.56958 14.3573 -1.3308716 17.926758 5.000244c3.56958 6.3311157 1.3309326 14.357178 -5.000244 17.926758c-6.3310547 3.569519 -14.357178 1.3308716 -17.926758 -5.000244z" fill-rule="nonzero"/><path fill="#000000" stroke="#000000" stroke-width="8.0" stroke-linecap="butt" d="m982.75024 569.76385c-0.10131836 -7.267395 5.707947 -13.240906 12.975281 -13.342224c7.267395 -0.10131836 13.240845 5.707947 13.342163 12.975281c0.10131836 7.267395 -5.7078857 13.240845 -12.97522 13.342163c-7.267395 0.10131836 -13.240906 -5.7078857 -13.342224 -12.97522z" fill-rule="nonzero"/><path fill="#000000" fill-opacity="0.0" d="m978.7507 569.8199c37.987732 -14.524475 178.76593 -138.54288 227.92645 -87.14697c49.160645 51.395874 55.864014 329.60193 67.03674 395.52228" fill-rule="evenodd"/><path stroke="#000000" stroke-width="8.0" stroke-linejoin="round" stroke-linecap="butt" d="m1005.1549 554.9164l1.3057251 -0.84277344c1.0559082 -0.6835327 2.1287842 -1.381897 3.2178345 -2.093872c4.356201 -2.8480225 8.971558 -5.9151 13.798584 -9.131653c19.308105 -12.86615 42.00305 -28.124023 65.04712 -41.32184c46.088013 -26.39566 93.572754 -44.55127 118.152954 -18.853333c24.5802 25.697906 38.546265 108.09839 47.763794 192.31445c4.6087646 42.108032 8.0303955 84.66992 10.998169 120.82489c1.4838867 18.077454 2.854248 34.55316 4.202881 48.56958c0.084228516 0.87597656 0.16845703 1.7424316 0.25268555 2.598999l0.111328125 1.1219482" fill-rule="evenodd"/><path fill="#000000" stroke="#000000" stroke-width="8.0" stroke-linecap="butt" d="m982.2341 567.8537c-3.5725708 -6.3294067 -1.3376465 -14.356567 4.9917603 -17.929077c6.329468 -3.5725708 14.356567 -1.3377075 17.929138 4.9917603c3.5725708 6.3294067 1.3376465 14.356567 -4.9917603 17.929077c-6.329468 3.5725708 -14.356567 1.3377075 -17.929138 -4.9917603z" fill-rule="nonzero"/><path fill="#000000" stroke="#000000" stroke-width="8.0" stroke-linecap="butt" d="m1273.2247 874.2252c-7.213501 0.888855 -13.781738 -4.2383423 -14.670532 -11.451843c-0.888916 -7.213501 4.2382812 -13.781738 11.451782 -14.670593c7.213501 -0.88879395 13.781738 4.2383423 14.670654 11.451843c0.88879395 7.213501 -4.2384033 13.781799 -11.451904 14.670593z" fill-rule="nonzero"/><path fill="#000000" fill-opacity="0.0" d="m1273.7146 878.1945c-86.59009 -134.63434 -348.03632 -735.7402 -519.5407 -807.8058c-171.50433 -72.06562 -443.00653 222.90114 -509.48553 375.41205c-66.479004 152.51093 92.1763 449.7113 110.61154 539.65356" fill-rule="evenodd"/><path stroke="#000000" stroke-width="8.0" stroke-linejoin="round" stroke-linecap="butt" d="m1258.0646 852.2256l-0.08166504 -0.14202881c-0.8198242 -1.427124 -1.649292 -2.8793945 -2.4884033 -4.3564453c-6.713379 -11.815857 -14.045044 -25.210876 -21.93042 -39.942017c-15.770752 -29.462097 -33.75659 -64.268555 -53.440186 -102.474915c-39.367065 -76.4126 -85.52515 -166.42487 -134.33679 -254.48184c-97.62341 -176.11392 -205.86102 -344.4068 -291.61322 -380.43964c-171.50433 -72.06562 -443.00653 222.90114 -509.48553 375.41205c-33.239502 76.25549 -10.195435 188.68329 23.462921 293.29004c16.829193 52.303345 36.31195 102.65149 52.739594 145.5451c8.213837 21.446838 15.663879 41.03003 21.636597 58.062256c1.4931641 4.2579956 2.8940125 8.356628 4.1913757 12.285095l0.4176941 1.2706909" fill-rule="evenodd"/><path fill="#000000" stroke="#000000" stroke-width="8.0" stroke-linecap="butt" d="m1271.6499 874.7685c-6.2249756 3.7514648 -14.312622 1.7462769 -18.064087 -4.478821c-3.7514648 -6.2250366 -1.7462158 -14.312622 4.478882 -18.064087c6.2249756 -3.7514648 14.312622 -1.7462158 18.064087 4.478821c3.7514648 6.2250366 1.7462158 14.312622 -4.478882 18.064087z" fill-rule="nonzero"/><path fill="#000000" stroke="#000000" stroke-width="8.0" stroke-linecap="butt" d="m354.22296 981.60205c-6.999695 1.9568481 -14.2604065 -2.1311646 -16.217255 -9.130859c-1.9568481 -6.999695 2.1311646 -14.260376 9.130829 -16.217224c6.999695 -1.9569092 14.260376 2.1311035 16.217255 9.130798c1.9568481 6.999695 -2.1311646 14.260376 -9.130829 16.217285z" fill-rule="nonzero"/><path fill="#000000" fill-opacity="0.0" d="m355.298 985.45404c-14.524933 136.86835 -158.6566 703.8942 -87.1496 821.21c71.50699 117.315796 430.15964 -97.76245 516.19165 -117.31494" fill-rule="evenodd"/><path stroke="#000000" stroke-width="8.0" stroke-linejoin="round" stroke-linecap="butt" d="m351.20956 1015.49713l-0.06951904 0.44586182c-1.8360901 11.700073 -4.094116 24.8656 -6.6898804 39.28186c-5.191498 28.83252 -11.733826 62.667603 -18.952637 99.78699c-14.437622 74.23889 -31.581207 161.61475 -46.036285 248.3794c-28.910172 173.52954 -47.06633 344.615 -11.312836 403.27283c35.75351 58.657837 143.29343 34.217163 252.64896 -7.331909c54.677734 -20.774536 109.80945 -45.826294 156.64862 -66.90625c23.419678 -10.540283 44.766113 -20.08728 62.946228 -27.610474c4.545044 -1.8807373 8.892151 -3.6350098 13.024292 -5.246704c0.5164795 -0.20141602 1.0296631 -0.40075684 1.5394287 -0.5977783l0.5601196 -0.21533203" fill-rule="evenodd"/><path fill="#000000" stroke="#000000" stroke-width="8.0" stroke-linecap="butt" d="m354.75864 989.41754c7.2016907 0.9800415 12.245331 7.612671 11.265259 14.814331c-0.9800415 7.201721 -7.6126404 12.245361 -14.814331 11.265259c-7.2016907 -0.9800415 -12.245331 -7.612671 -11.265259 -14.814331c0.9800415 -7.20166 7.612671 -12.2453 14.814331 -11.265259z" fill-rule="nonzero"/><path fill="#000000" stroke="#000000" stroke-width="8.0" stroke-linecap="butt" d="m780.53735 1690.5901c2.2548828 6.909424 -1.5184326 14.338501 -8.427856 16.593384c-6.909424 2.2548828 -14.338562 -1.5184326 -16.593445 -8.427856c-2.2548828 -6.909424 1.5184326 -14.338501 8.427856 -16.593384c6.909424 -2.2548828 14.338562 1.5184326 16.593445 8.427856z" fill-rule="nonzero"/><path fill="#000000" fill-opacity="0.0" d="m784.3412 1685.9973c40.222656 32.960205 189.94055 225.69385 241.33594 197.76123c51.395508 -27.932617 55.864014 -304.4641 67.03674 -365.35693" fill-rule="evenodd"/><path stroke="#000000" stroke-width="8.0" stroke-linejoin="round" stroke-linecap="butt" d="m806.0871 1707.126l1.1411133 1.1971436c1.0454102 1.0996094 2.1104736 2.2252197 3.194275 3.3752441c2.1677246 2.3000488 4.4105835 4.697998 6.722473 7.182373c4.623474 4.968872 9.522583 10.282959 14.646484 15.8498535c20.495361 22.267456 44.587097 48.57617 69.027954 72.98218c48.881714 48.81189 99.160095 90.01196 124.85773 76.04578c25.697754 -13.966187 39.663696 -90.0824 48.60193 -170.31836c4.469116 -40.118042 7.6811523 -81.26611 10.474365 -116.19031c1.3964844 -17.46228 2.6883545 -33.36853 3.9802246 -46.81201l0.1899414 -1.9541016" fill-rule="evenodd"/><path fill="#000000" stroke="#000000" stroke-width="8.0" stroke-linecap="butt" d="m787.2101 1688.7848c5.0647583 -5.2127686 13.396362 -5.3326416 18.60907 -0.26794434c5.2127686 5.0648193 5.3327026 13.396484 0.2678833 18.60913c-5.0647583 5.2127686 -13.396362 5.3327637 -18.60907 0.26794434c-5.2127686 -5.0648193 -5.3327026 -13.396362 -0.2678833 -18.60913z" fill-rule="nonzero"/><path fill="#000000" stroke="#000000" stroke-width="8.0" stroke-linecap="butt" d="m1092.2139 1522.3702c7.2110596 0.90856934 12.32019 7.4908447 11.411621 14.701904c-0.90856934 7.2110596 -7.4908447 12.32019 -14.701904 11.411621c-7.2110596 -0.90856934 -12.32019 -7.4908447 -11.411621 -14.701904c0.90856934 -7.2110596 7.4908447 -12.32019 14.701904 -11.411621z" fill-rule="nonzero"/><path fill="#000000" fill-opacity="0.0" d="m1092.7139 1518.4016c-28.49121 -7.821167 -125.69678 22.904175 -170.94745 -46.926514c-45.25067 -69.83069 -83.79706 -310.0481 -100.55646 -372.05774" fill-rule="evenodd"/><path stroke="#000000" stroke-width="8.0" stroke-linejoin="round" stroke-linecap="butt" d="m1062.4076 1517.4885l-2.0605469 0.10119629c-13.82666 0.68969727 -30.0625 1.6148682 -46.822083 0.60217285c-33.519165 -2.0250244 -69.13324 -11.801514 -91.758545 -46.716797c-22.625366 -34.915405 -43.574585 -112.42749 -60.962463 -188.96179c-8.693909 -38.267212 -16.497437 -76.29004 -23.174988 -108.62158c-3.3388062 -16.165894 -6.396118 -30.908813 -9.142395 -43.548096l-0.31011963 -1.4174805" fill-rule="evenodd"/><path fill="#000000" stroke="#000000" stroke-width="8.0" stroke-linecap="butt" d="m1088.7157 1518.2811c-0.21887207 7.2647705 -6.2855225 12.9765625 -13.550293 12.75769c-7.2647705 -0.21887207 -12.9765625 -6.2855225 -12.75769 -13.550293c0.21887207 -7.2647705 6.2855225 -12.976685 13.550293 -12.7578125c7.2647705 0.21899414 12.9765625 6.2856445 12.75769 13.550415z" fill-rule="nonzero"/><path fill="#000000" stroke="#000000" stroke-width="8.0" stroke-linecap="butt" d="m822.129 1103.3103c7.0736084 -1.6699219 14.161682 2.7105713 15.831604 9.78418c1.6699829 7.0737305 -2.7105713 14.161743 -9.784241 15.831665c-7.0736084 1.6699219 -14.161621 -2.7105713 -15.831604 -9.78418c-1.6699219 -7.0736084 2.7106323 -14.161743 9.784241 -15.831665z" fill-rule="nonzero"/><path fill="#000000" fill-opacity="0.0" d="m821.20996 1099.4174c53.071777 118.43298 175.41644 612.8351 318.43042 710.5984c143.01404 97.763306 449.7113 -103.34863 539.65356 -124.01843" fill-rule="evenodd"/><path stroke="#000000" stroke-width="8.0" stroke-linejoin="round" stroke-linecap="butt" d="m832.5944 1127.5189l0.09063721 0.2401123c0.24243164 0.6442871 0.48590088 1.2935791 0.73028564 1.947876c0.48883057 1.3084717 0.98168945 2.6365967 1.4785767 3.9840088c0.9937134 2.6947021 2.003479 5.4664307 3.0289917 8.312378c2.0510254 5.6917725 4.165283 11.679932 6.3411865 17.94104c8.703857 25.044067 18.39508 54.453735 28.978943 86.71997c21.167664 64.53235 45.905334 140.49084 73.4538 215.80334c55.096863 150.62524 121.436584 298.6665 192.94354 347.5481c71.50708 48.88159 183.93494 23.044434 289.72876 -17.596802c52.896973 -20.320679 104.135254 -44.342285 147.771 -64.57556c21.817749 -10.116821 41.734863 -19.286499 59.00818 -26.572754c4.3182373 -1.8216553 8.471436 -3.5255127 12.447632 -5.097046c0.4970703 -0.1965332 0.991333 -0.39074707 1.4827881 -0.58325195l0.40124512 -0.15600586" fill-rule="evenodd"/><path fill="#000000" stroke="#000000" stroke-width="8.0" stroke-linecap="butt" d="m822.71185 1103.1246c6.736328 -2.729004 14.409424 0.51953125 17.138428 7.2558594c2.7289429 6.736328 -0.5195923 14.409424 -7.2558594 17.138428c-6.736267 2.7288818 -14.409424 -0.5196533 -17.138367 -7.2558594c-2.729004 -6.736328 0.51953125 -14.409424 7.2557983 -17.138428z" fill-rule="nonzero"/><path fill="#000000" stroke="#000000" stroke-width="8.0" stroke-linecap="butt" d="m1675.4927 1687.2423c2.262085 6.9071045 -1.5032959 14.34021 -8.4104 16.602417c-6.9071045 2.262085 -14.34021 -1.5032959 -16.602295 -8.4104c-2.262207 -6.9071045 1.5032959 -14.34021 8.4104 -16.602295c6.9069824 -2.262207 14.340088 1.5032959 16.602295 8.410278z" fill-rule="nonzero"/></g></svg>